
<svg xmlns="http://www.w3.org/2000/svg" xmlns:xlink="http://www.w3.org/1999/xlink" width="30" height="30" viewBox="0 0 30 30">
  <defs>
    <clipPath id="clip-path">
      <rect id="사각형_239" data-name="사각형 239" width="20" height="20" fill="none"/>
    </clipPath>
  </defs>
  <g id="ic_Edit" transform="translate(5 5)">
    <rect id="사각형_539" data-name="사각형 539" width="30" height="30" transform="translate(-5 -5)" fill="none"/>
    <g id="그룹_138" data-name="그룹 138" clip-path="url(#clip-path)">
      <g id="그룹_137" data-name="그룹 137">
        <g id="그룹_136" data-name="그룹 136" clip-path="url(#clip-path)">
          <g id="그룹_135" data-name="그룹 135" opacity="0">
            <g id="그룹_134" data-name="그룹 134">
              <g id="그룹_133" data-name="그룹 133" clip-path="url(#clip-path)">
                <rect id="사각형_236" data-name="사각형 236" width="20" height="20" fill="none" stroke="#0e7ae6"/>
              </g>
            </g>
          </g>
          <path id="패스_235" data-name="패스 235" d="M18.167,7.535a.6.6,0,0,0-.6.6v8.45a1.4,1.4,0,0,1-1.4,1.4H3.208a1.4,1.4,0,0,1-1.4-1.4v-13a1.4,1.4,0,0,1,1.4-1.4h8.477a.6.6,0,0,0,0-1.2H3.208a2.6,2.6,0,0,0-2.593,2.6v13a2.6,2.6,0,0,0,2.593,2.6H16.173a2.6,2.6,0,0,0,2.593-2.6V8.135a.6.6,0,0,0-.6-.6" fill="#2b2d3a"/>
          <path id="패스_236" data-name="패스 236" d="M5.815,10.569v.06a.6.6,0,0,0-.107.2l-.971,3.539a.6.6,0,0,0,.155.582.605.605,0,0,0,.58.155l3.486-.953c.022-.005.036-.015.034-.016a.587.587,0,0,0,.238-.141l8.219-8.243h.059V5.688l.606-.607a2.377,2.377,0,0,0-1.693-4.074h0a2.4,2.4,0,0,0-1.691.681l-8.855,8.88Zm9.76-8.033h0a1.194,1.194,0,0,1,.842-.339h0a1.177,1.177,0,0,1,1.2,1.188,1.191,1.191,0,0,1-.351.848l-.211.212-1.692-1.7ZM14.518,3.6l1.691,1.7-7.4,7.425-1.692-1.7ZM6.573,12.178l1.08,1.083-1.485.405Z" fill="#2b2d3a"/>
        </g>
      </g>
    </g>
  </g>
</svg>
