<svg xmlns="http://www.w3.org/2000/svg" xmlns:xlink="http://www.w3.org/1999/xlink" width="22" height="22" viewBox="0 0 22 22">
  <defs>
    <clipPath id="clip-path">
      <rect id="사각형_14" data-name="사각형 14" width="22" height="22" fill="none"/>
    </clipPath>
  </defs>
  <g id="ic_check_g" transform="translate(0 0)">
    <g id="그룹_23" data-name="그룹 23" transform="translate(0 0)" clip-path="url(#clip-path)">
      <path id="패스_50" data-name="패스 50" d="M11,0h0A11.07,11.07,0,0,0,8.783.223C8.424.3,8.074.387,7.73.5a10.887,10.887,0,0,0-1.972.832q-.469.254-.907.552A10.964,10.964,0,0,0,3.222,3.222Q2.848,3.6,2.512,4A11,11,0,0,0,2.512,18q.336.406.71.781A11.174,11.174,0,0,0,4.85,20.121q.439.3.907.552A11.007,11.007,0,0,0,7.73,21.5c.344.106.695.2,1.053.271A11,11,0,1,0,11,0" transform="translate(0 0.001)" fill="#46e002"/>
      <path id="패스_51" data-name="패스 51" d="M14.821,3.461a1.915,1.915,0,0,0-.364.035,1.877,1.877,0,0,0-.685.274,1.959,1.959,0,0,0-.3.241l-5.5,5.414L5.522,7.007a1.9,1.9,0,0,0-.63-.412,1.937,1.937,0,0,0-1.436,0,1.9,1.9,0,0,0-.63.412,1.858,1.858,0,0,0,0,2.655l3.8,3.745a1.911,1.911,0,0,0,1.348.55,1.941,1.941,0,0,0,.718-.138,1.9,1.9,0,0,0,.63-.412l6.844-6.741a1.858,1.858,0,0,0,0-2.655,1.911,1.911,0,0,0-1.348-.55" transform="translate(1.501 2.291)" fill="#fff"/>
    </g>
  </g>
</svg>
