<svg xmlns="http://www.w3.org/2000/svg" xmlns:xlink="http://www.w3.org/1999/xlink" width="30" height="30" viewBox="0 0 30 30">
  <defs>
    <clipPath id="clip-path">
      <rect id="사각형_235" data-name="사각형 235" width="17" height="20" fill="none"/>
    </clipPath>
  </defs>
  <g id="ic_Delete" transform="translate(6.5 5)">
    <rect id="사각형_538" data-name="사각형 538" width="30" height="30" transform="translate(-6.5 -5)" fill="none"/>
    <g id="그룹_132" data-name="그룹 132" clip-path="url(#clip-path)">
      <path id="패스_231" data-name="패스 231" d="M8.5,8.416a.594.594,0,0,0-.593.594v7.426a.593.593,0,1,0,1.186,0V9.01A.594.594,0,0,0,8.5,8.416" fill="#2b2d3a"/>
      <path id="패스_232" data-name="패스 232" d="M11.465,8.416a.594.594,0,0,0-.593.594v7.426a.593.593,0,1,0,1.186,0V9.01a.594.594,0,0,0-.593-.594" fill="#2b2d3a"/>
      <path id="패스_233" data-name="패스 233" d="M5.535,8.416a.594.594,0,0,0-.593.594v7.426a.593.593,0,1,0,1.186,0V9.01a.594.594,0,0,0-.593-.594" fill="#2b2d3a"/>
      <path id="패스_234" data-name="패스 234" d="M14.924,1.981H11.352a3.044,3.044,0,0,0-5.705,0H2.075a2.079,2.079,0,0,0-.1,4.156V17.92A2.081,2.081,0,0,0,4.052,20h8.895a2.08,2.08,0,0,0,2.076-2.08V6.137a2.079,2.079,0,0,0-.1-4.156m-1.977,16.83H4.052a.891.891,0,0,1-.889-.891V6.139H13.837V17.92a.892.892,0,0,1-.89.891M8.5,1.188a1.879,1.879,0,0,1,1.52.793H6.979A1.879,1.879,0,0,1,8.5,1.188M14.924,4.95H2.075a.891.891,0,0,1,0-1.781H14.924a.891.891,0,0,1,0,1.781" fill="#2b2d3a"/>
    </g>
  </g>
</svg>
